<?xml version="1.0" encoding="utf-8"?>
<!-- Generator: Adobe Illustrator 23.0.3, SVG Export Plug-In . SVG Version: 6.00 Build 0)  -->
<svg version="1.1" id="Calque_1" xmlns="http://www.w3.org/2000/svg" xmlns:xlink="http://www.w3.org/1999/xlink" x="0px" y="0px"
	 viewBox="0 0 101.3 101.6" style="enable-background:new 0 0 101.3 101.6;" xml:space="preserve">
<style type="text/css">
	.st0{fill:url(#SVGID_1_);}
	.st1{fill:#FFFFFF;}
</style>
<g id="C">
	
		<linearGradient id="SVGID_1_" gradientUnits="userSpaceOnUse" x1="14516.2646" y1="17609.9043" x2="14517.1455" y2="17610.7969" gradientTransform="matrix(101.2373 0 0 -101.6536 -1469581 1790207.25)">
		<stop  offset="0" style="stop-color:#070135"/>
		<stop  offset="1" style="stop-color:#612D50"/>
	</linearGradient>
	<path class="st0" d="M0.1,85.3c0,9,7.4,16.3,16.3,16.3h68.5c9,0,16.3-7,16.3-16.3V16.4c0-9-7.4-16.3-16.3-16.3H16.4
		c-9,0-16.3,7.4-16.3,16.3V85.3z"/>
	<path class="st1" d="M51.3,44l-9,0.3V30.9h9c2.6,0,4.5,0.3,5.8,1.6c1.3,1,1.9,2.6,1.9,4.8s-0.6,4.2-1.9,5.1
		C55.8,43.3,53.9,44,51.3,44 M51.9,71.5l-9.6-0.3V54.9h9.6c3.2,0,5.8,0.6,7.4,1.9c1.6,1.6,2.6,3.5,2.6,6.4c0,2.6-1,4.8-2.6,6.4
		C57.7,70.9,55.2,71.5,51.9,71.5 M67.3,48.8c2.6-1,4.8-2.6,6.4-5.1c1.6-1.9,2.2-4.5,2.2-7.7c0-6.1-2.2-10.2-6.1-12.8
		c-3.8-2.6-10.2-3.8-19.2-3.8H26v63.1h27.2c8.3,0,15.1-1.6,19.2-4.5c4.2-2.9,6.1-7.4,6.1-13.5c0-3.8-1-7-2.9-9.9
		C73.7,51.7,70.8,49.7,67.3,48.8"/>
</g>
</svg>
