<?xml version="1.0" encoding="utf-8"?>
<!-- Generator: Adobe Illustrator 23.0.3, SVG Export Plug-In . SVG Version: 6.00 Build 0)  -->
<svg version="1.1" id="Calque_1" xmlns="http://www.w3.org/2000/svg" xmlns:xlink="http://www.w3.org/1999/xlink" x="0px" y="0px"
	 viewBox="0 0 389.8 201.3" style="enable-background:new 0 0 389.8 201.3;" xml:space="preserve">
<style type="text/css">
	.st0{fill:#00618A;}
	.st1{fill:#E48E00;}
	.st2{fill-rule:evenodd;clip-rule:evenodd;fill:#00618A;}
	.st3{fill-rule:evenodd;clip-rule:evenodd;fill:#E48E00;}
</style>
<g transform="translate(0.738281, 121.593)">
	<path class="st0" d="M-0.7,61.8h12.8V11L32,55.3c2.3,5.4,5.6,7.2,11.9,7.2c6.3,0,9.4-1.9,11.7-7.2L75.4,11v50.7h12.8V11.1
		c0-4.9-2-7.3-6.1-8.6c-9.8-3-16.3-0.4-19.3,6.2L43.5,52.4L24.6,8.7c-2.8-6.6-9.5-9.2-19.3-6.2c-4.1,1.2-6.1,3.6-6.1,8.6V61.8z"/>
</g>
<g transform="translate(100.444, 142.416)">
	<path class="st0" d="M-0.7-0.3h12.8v27.9c-0.1,1.5,0.5,5.1,7.5,5.2c3.6,0.1,27.7,0,27.9,0V-0.5h12.9c0.1,0,0,45.4,0,45.6
		c0.1,11.2-13.9,13.6-20.3,13.8H-0.5v-8.6c0.1,0,40.5,0,40.6,0c8.3-0.9,7.3-5,7.3-6.4v-3.4H20.2c-12.7-0.1-20.8-5.7-20.9-12
		C-0.7,27.9-0.5-0.1-0.7-0.3z"/>
</g>
<g transform="translate(171.496, 124.557)">
	<path class="st1" d="M-0.7,58.8h36.9c4.3,0,8.5-0.9,11.9-2.5c5.6-2.6,8.3-6,8.3-10.5v-9.4c0-3.7-3.1-7.2-9.1-9.5
		C44,25.7,40,25,36.2,25H20.6c-5.2,0-7.7-1.6-8.3-5c-0.1-0.4-0.1-0.7-0.1-1.2V13c0-0.3,0-0.7,0.1-1.1c0.6-2.6,2-3.4,6.5-3.8
		c0.4,0,0.9-0.1,1.2-0.1h36.7v-8.6H20.7c-5.2,0-7.9,0.3-10.4,1.1C2.7,3-0.6,6.8-0.6,13.4v7.5c0,5.8,6.5,10.7,17.5,11.9
		c1.2,0.1,2.5,0.2,3.7,0.2H34c0.5,0,1,0,1.4,0.1c4.1,0.3,5.8,1.1,7,2.6c0.7,0.7,1,1.5,1,2.3v7.5c0,0.9-0.6,2.1-1.9,3
		c-1.1,1-3,1.6-5.4,1.8c-0.5,0-0.9,0.1-1.4,0.1H-0.7V58.8z"/>
</g>
<g transform="translate(308.656, 124.557)">
	<path class="st1" d="M-0.7,43.9c0,8.8,6.5,13.7,19.8,14.7c1.2,0.1,2.5,0.2,3.7,0.2h33.5v-8.6H22.5c-7.5,0-10.4-1.9-10.4-6.4V-0.5
		H-0.7V43.9z"/>
</g>
<g transform="translate(236.74, 124.666)">
	<path class="st1" d="M-0.7,44.2V13.7C-0.7,6,4.7,1.3,15.5-0.2c1.1-0.2,2.4-0.2,3.5-0.2h24.4c1.2,0,2.4,0.1,3.6,0.2
		C57.7,1.3,63.1,6,63.1,13.7v30.5c0,6.3-2.3,9.7-7.6,11.9l12.7,11.4H53.2L43,58.3l-10.3,0.7H18.9c-2.4,0-4.8-0.3-7.5-1.1
		C3.2,55.6-0.7,51.3-0.7,44.2z M13.1,43.5c0,0.4,0.1,0.8,0.2,1.3c0.7,3.5,4.1,5.5,9.2,5.5h11.7l-10.7-9.7h14.9l9.3,8.4
		c1.7-0.9,2.9-2.3,3.3-4.1c0.1-0.4,0.1-0.8,0.1-1.2V14.5c0-0.3,0-0.7-0.1-1.2c-0.7-3.3-4.1-5.2-9-5.2H22.5c-5.7,0-9.4,2.5-9.4,6.4
		V43.5z"/>
</g>
<g transform="translate(241.59, -4.64258)">
	<path class="st0" d="M134.6,114.5c-7.9-0.2-13.9,0.5-19.1,2.7c-1.5,0.6-3.8,0.6-4,2.5c0.8,0.8,0.9,2.1,1.6,3.1
		c1.2,2,3.3,4.7,5.2,6.1c2,1.5,4.1,3.2,6.3,4.5c3.9,2.4,8.2,3.7,11.9,6.1c2.2,1.4,4.4,3.1,6.5,4.7c1.1,0.8,1.8,2,3.1,2.5
		c0-0.1,0-0.1,0-0.2c-0.7-0.9-0.9-2.2-1.6-3.1c-1-1-1.9-1.9-2.9-2.9c-2.9-3.8-6.5-7.1-10.3-9.9c-3.1-2.2-9.9-5.2-11.2-8.8
		c-0.1-0.1-0.1-0.2-0.2-0.2c2.2-0.2,4.7-1,6.7-1.6c3.4-0.9,6.4-0.7,9.9-1.6c1.6-0.4,3.1-0.9,4.7-1.3c0-0.3,0-0.6,0-0.9
		c-1.8-1.8-3-4.2-4.9-5.8c-5-4.3-10.5-8.6-16.2-12.1c-3.1-2-7-3.3-10.3-4.9c-1.1-0.6-3.1-0.9-3.8-1.8c-1.7-2.2-2.7-5-4-7.6
		c-2.8-5.4-5.6-11.4-8.1-17.1c-1.7-3.9-2.8-7.7-4.9-11.2C78.6,38.7,67.6,28.6,50.6,18.7c-3.6-2.1-8-2.9-12.6-4
		c-2.5-0.1-4.9-0.3-7.4-0.4c-1.5-0.6-3.1-2.5-4.5-3.4C20.5,7.3,6.1-0.5,1.9,9.7c-2.6,6.4,3.9,12.7,6.3,15.9c1.6,2.3,3.8,4.8,4.9,7.4
		c0.8,1.7,0.9,3.4,1.6,5.2c1.6,4.4,3.1,9.2,5.2,13.2c1.1,2.1,2.2,4.2,3.6,6.1c0.8,1.1,2.2,1.6,2.5,3.4c-1.4,1.9-1.5,5-2.2,7.4
		c-3.5,11.1-2.2,24.8,2.9,33c1.6,2.5,5.3,7.9,10.3,5.8c4.4-1.8,3.4-7.4,4.7-12.3c0.3-1.1,0.1-1.9,0.7-2.7c0,0.1,0,0.1,0,0.2
		c1.3,2.7,2.7,5.4,4,8.1c3,4.8,8.3,9.8,12.8,13.2c2.3,1.8,4.2,4.8,7.2,5.8c0-0.1,0-0.1,0-0.2c-0.1,0-0.2,0-0.2,0
		c-0.6-0.9-1.5-1.3-2.2-2c-1.8-1.7-3.7-3.9-5.2-5.8c-4.1-5.6-7.7-11.6-11-18c-1.6-3-2.9-6.4-4.3-9.4c-0.5-1.2-0.5-3-1.6-3.6
		c-1.5,2.3-3.6,4.1-4.7,6.7c-1.8,4.3-2,9.4-2.7,14.8c-0.4,0.1-0.2,0-0.5,0.2c-3.1-0.8-4.2-4-5.4-6.7c-2.9-7-3.5-18.2-0.9-26.3
		c0.7-2.1,3.7-8.6,2.5-10.5c-0.6-1.9-2.5-3-3.6-4.5c-1.3-1.8-2.7-4.2-3.6-6.3c-2.4-5.4-3.5-11.6-6.1-17.1c-1.2-2.6-3.3-5.3-4.9-7.6
		c-1.9-2.6-3.9-4.5-5.4-7.6c-0.5-1.1-1.2-2.9-0.4-4c0.2-0.8,0.6-1.1,1.3-1.3c1.3-1,4.9,0.3,6.3,0.9c3.6,1.5,6.6,2.9,9.7,4.9
		c1.5,1,2.9,2.8,4.7,3.4c0.7,0,1.3,0,2,0c3.2,0.7,6.7,0.2,9.7,1.1c5.2,1.6,9.9,4.1,14.1,6.7C66.9,35.4,77.5,47,84.7,60.9
		c1.2,2.2,1.7,4.4,2.7,6.7c2.1,4.8,4.7,9.7,6.7,14.4c2.1,4.7,4.1,9.4,7,13.2c1.5,2,7.4,3.1,10.1,4.3c1.9,0.8,5,1.6,6.7,2.7
		c3.4,2,6.7,4.5,9.9,6.7C129.4,110,134.3,112.5,134.6,114.5z"/>
</g>
<g transform="translate(272.504, 24.8027)">
	<path class="st2" d="M3.3-0.4c-1.6,0-2.8,0.2-4,0.4c0,0.1,0,0.2,0,0.2c0.1,0,0.1,0,0.2,0c0.8,1.6,2.2,2.7,3.1,4
		C3.4,5.8,4.1,7.4,4.9,9C4.9,8.9,5,8.8,5.1,8.8c1.4-1,2-2.5,2-4.9C6.6,3.2,6.5,2.5,6,1.8C5.4,0.9,4.1,0.3,3.3-0.4z"/>
</g>
<g transform="translate(371.609, 165.56)">
	<path class="st3" d="M-0.7,9c0,5.7,4.5,9.5,9.5,9.5s9.5-3.8,9.5-9.5c0-5.7-4.5-9.5-9.5-9.5S-0.7,3.3-0.7,9z M16.1,9
		c0,4.3-3.3,7.5-7.3,7.5c-4.1,0-7.3-3.2-7.3-7.5s3.2-7.5,7.3-7.5C12.8,1.5,16.1,4.7,16.1,9z M11.3,14.4h2.1l-3.1-4.7
		c1.7-0.2,2.9-1,2.9-3c0-2.2-1.4-3.1-4.1-3.1H4.9v10.8h1.8V9.7h1.7L11.3,14.4z M6.8,8.2V5.1h2.1c1.1,0,2.4,0.2,2.4,1.5
		c0,1.5-1.2,1.6-2.5,1.6H6.8z"/>
</g>
</svg>
