<?xml version="1.0" encoding="utf-8"?>
<!-- Generator: Adobe Illustrator 23.0.3, SVG Export Plug-In . SVG Version: 6.00 Build 0)  -->
<svg version="1.1"
	 id="svg2" xmlns:cc="http://creativecommons.org/ns#" xmlns:dc="http://purl.org/dc/elements/1.1/" xmlns:inkscape="http://www.inkscape.org/namespaces/inkscape" xmlns:rdf="http://www.w3.org/1999/02/22-rdf-syntax-ns#" xmlns:sodipodi="http://sodipodi.sourceforge.net/DTD/sodipodi-0.dtd" xmlns:svg="http://www.w3.org/2000/svg"
	 xmlns="http://www.w3.org/2000/svg" xmlns:xlink="http://www.w3.org/1999/xlink" x="0px" y="0px" viewBox="0 0 56.1 56.1"
	 style="enable-background:new 0 0 56.1 56.1;" xml:space="preserve">
<style type="text/css">
	.st0{fill:#FFFFFF;}
</style>
<sodipodi:namedview  bordercolor="#666666" borderopacity="1" fit-margin-bottom="5" fit-margin-left="5" fit-margin-right="5" fit-margin-top="5" gridtolerance="10" guidetolerance="10" id="namedview36" inkscape:current-layer="svg2" inkscape:cx="99.083448" inkscape:cy="34.037085" inkscape:pageopacity="0" inkscape:pageshadow="2" inkscape:window-height="718" inkscape:window-maximized="1" inkscape:window-width="1366" inkscape:window-x="0" inkscape:window-y="0" inkscape:zoom="2.1290347" objecttolerance="10" pagecolor="#ffffff" showgrid="false">
	</sodipodi:namedview>
<g id="fond" transform="translate(-25.585001,-24.997999)">
</g>
<g id="compacte" transform="translate(-25.585001,-24.997999)">
</g>
<g id="rectangle" transform="translate(-25.585001,-24.997999)">
</g>
<g id="g12">
	<circle id="circle14" cx="28" cy="28.1" r="28.1"/>
	<path id="path16" inkscape:connector-curvature="0" class="st0" d="M40.3,10.4c-2.9,0.1-5.3,1.7-7.2,3.8c-2.1,2.4-3.4,5.2-4.4,8.1
		c-1.8-1.4-3.1-3.3-5.9-4.1c-2.2-0.6-4.5-0.4-6.6,1.2c-1,0.7-1.7,1.9-2,2.9c-0.8,2.8,0.9,5.2,1.7,6.1l1.7,1.8
		c0.4,0.4,1.2,1.3,0.8,2.7c-0.5,1.5-2.2,2.4-4.1,1.9c-0.8-0.3-2-0.9-1.7-1.7c0.1-0.3,0.4-0.6,0.5-0.9c0.1-0.3,0.2-0.5,0.2-0.6
		c0.3-1.1-0.1-2.5-1.3-2.9c-1.1-0.3-2.2-0.1-2.6,1.3c-0.5,1.6,0.3,4.5,4.3,5.7c4.8,1.5,8.8-1.1,9.4-4.5c0.4-2.1-0.6-3.7-2.4-5.7
		L19.3,24c-0.9-0.9-1.2-2.3-0.3-3.5c0.8-1,1.8-1.4,3.6-0.9c2.6,0.7,3.7,2.5,5.6,3.9c-0.8,2.6-1.3,5.2-1.8,7.5l-0.3,1.7
		c-1.2,7.3-2.3,11.3-5,13.5c-0.5,0.4-1.3,1-2.5,1c-0.6,0-0.8-0.4-0.8-0.6c0-0.4,0.4-0.6,0.6-0.8c0.4-0.2,0.9-0.5,0.9-1.6
		c0-1.2-1.1-2.3-2.6-2.3c-1.1,0-2.8,1.1-2.8,3c0.1,2,1.9,3.5,4.7,3.4c1.5,0,4.8-0.7,8.1-4.6c3.8-4.5,4.9-9.6,5.7-13.4l0.9-5
		c0.5,0.1,1,0.1,1.6,0.1c4.8,0.1,7.1-2.4,7.2-4.2c0-1.1-0.7-2.2-1.7-2.1c-0.7,0-1.7,0.5-1.9,1.5s1.5,1.9,0.2,2.8
		c-1,0.6-2.7,1.1-5.1,0.7l0.4-2.4c0.9-4.6,2-10.3,6.2-10.4c0.3,0,1.4,0,1.5,0.8c0,0.2-0.1,0.3-0.3,0.9c-0.3,0.4-0.4,0.8-0.4,1.3
		c0,1.2,0.9,2,2.2,1.9c1.7-0.1,2.2-1.7,2.2-2.6C45.3,11.6,43.1,10.3,40.3,10.4z"/>
</g>
</svg>
